<svg version="1.2" xmlns="http://www.w3.org/2000/svg" viewBox="0 0 716 326" width="716" height="326">
	<style>
		.s0 { fill: #000000 } 
	</style>
	<path id="Layer 2" fill-rule="evenodd" class="s0" d="m104.93 15.68c1.97 0.8 8.03 4.69 13.49 8.64 5.46 3.95 22.56 16.23 38 27.29 16.61 11.89 28.77 21.29 29.76 23 1.42 2.44 1.79 7.45 2.4 32.39 0.57 23.46 0.44 30.63-0.64 35-1.26 5.09-1.9 5.91-8.53 11-3.94 3.02-12.62 9.44-19.29 14.25-6.67 4.81-12.09 9.09-12.06 9.5 0.03 0.41 8.38 7.73 18.56 16.25 10.18 8.52 19.85 16.85 21.49 18.5 2.73 2.75 2.97 3.57 2.93 9.75-0.03 5.9-0.39 7.15-2.79 9.9-1.51 1.73-10.18 9.07-19.25 16.32-9.07 7.24-27.53 21.93-41 32.63-13.48 10.71-25.85 20.44-27.5 21.63-1.65 1.18-4.35 2.47-6 2.85-2.24 0.53-4.14 0.08-7.5-1.76-2.48-1.35-14.18-9.54-26-18.19-11.82-8.64-26.11-19.07-31.75-23.18-6.35-4.62-10.87-8.69-11.89-10.7-1.47-2.92-1.65-11.63-1.84-86.25-0.11-47.68 0.19-84.06 0.71-85.5 0.5-1.38 1.89-3.58 3.09-4.9 1.2-1.32 17.03-13.49 35.18-27.04 18.15-13.55 35.02-26.04 37.5-27.76 2.47-1.72 5.6-3.56 6.93-4.1 1.75-0.7 3.45-0.56 6 0.48zm7.06 125.82c13.96 15.11 18.46 19.5 19.01 19.5 0.55 0 8.87-5.85 18.5-13l17.5-13-0.03-49.5c-11.99-8.5-22.22-15.88-30.47-21.87-8.25-6-17.07-12.45-19.59-14.35l-4.6-3.45zm-74.49-54c-0.39 110.44-0.28 142.5 0 142.5 0.27 0 4.44-2.85 9.25-6.33 4.81-3.47 20.45-14.95 34.75-25.49 14.3-10.54 27.35-20.25 29-21.59l3-2.42c-15.81-16.02-20.87-21.91-21.45-23.42-0.65-1.69-1.1-15.33-1.17-35.5-0.07-18.01-0.49-40.48-0.94-49.92l-0.81-17.17zm365-9.4c1.1-0.04 5.15 0.6 9 1.43 3.93 0.83 9.34 2.91 12.32 4.73 2.92 1.78 7.32 5.26 9.77 7.74 2.45 2.47 5.76 6.97 7.36 10 1.59 3.02 3.52 8.65 4.28 12.5 0.99 5.01 1.15 9.27 0.56 15-0.48 4.62-1.79 10.11-3.11 13-1.26 2.75-3.66 7.02-5.33 9.5-1.67 2.47-5.69 6.54-8.94 9.04-3.54 2.72-8.71 5.48-12.91 6.89-5.78 1.93-8.39 2.26-15 1.86-4.73-0.29-9.63-1.25-12-2.34-2.2-1.02-6.14-3.56-13.5-9.45v40l-21.5-0.5-0.5-116.5h22l-0.05 9.5 2.28-2.12c1.25-1.16 4.52-3.41 7.27-4.98 2.75-1.58 7.48-3.41 10.5-4.06 3.03-0.65 6.4-1.21 7.5-1.24zm95.25-0.02c1.79-0.05 5.61 0.42 8.5 1.04 2.89 0.62 7.5 2.26 10.25 3.64 2.75 1.39 6.53 3.69 8.39 5.13 1.87 1.43 5.15 5.08 7.3 8.11 2.15 3.02 4.8 8.42 5.88 12 1.29 4.25 1.97 9.34 1.93 23l-64.5-0.04 0.75 3.52c0.41 1.93 1.99 5.15 3.5 7.14 1.51 2 4.55 4.68 6.75 5.97 2.33 1.37 6.51 2.62 10 2.99 3.43 0.36 7.82 0.16 10.25-0.47 2.89-0.76 5.94-2.77 9.5-6.27 5.08-4.98 5.35-5.11 8.25-3.89 1.65 0.69 5.1 1.77 7.67 2.4 2.57 0.63 5.04 1.49 5.5 1.91 0.46 0.43-0.24 2.68-1.55 5-1.31 2.33-4.69 6.6-7.5 9.48-3.1 3.18-7.49 6.33-11.12 7.99-4.99 2.27-7.68 2.79-16 3.07-7.42 0.25-11.29-0.1-15-1.34-2.75-0.92-7.02-2.64-9.48-3.82-2.47-1.18-6.79-4.39-9.6-7.14-2.81-2.75-6.26-7.25-7.67-10-1.4-2.75-3.26-7.7-4.13-11-0.87-3.3-1.58-8.7-1.58-12 0-3.3 0.71-8.7 1.58-12 0.87-3.3 2.6-8.03 3.85-10.5 1.24-2.48 4.46-6.77 7.15-9.55 2.68-2.77 7.36-6.46 10.38-8.2 3.03-1.73 8.2-3.81 11.5-4.62 3.3-0.81 7.46-1.51 9.25-1.55zm-198.25 1.25c9.83 0.28 11.64 0.63 17 3.28 3.3 1.64 7.94 4.53 10.31 6.43 2.37 1.9 6.03 5.93 8.15 8.96 2.11 3.02 4.83 8.42 6.04 12 1.82 5.35 2.14 8.16 1.83 16-0.33 8.36-0.8 10.39-3.91 17-1.95 4.12-5.31 9.48-7.48 11.91-2.16 2.43-6.19 5.85-8.94 7.61-2.75 1.76-7.7 4.2-11 5.43-5.1 1.89-7.42 2.16-15.5 1.78-6.53-0.31-11.21-1.13-15-2.62-3.02-1.2-7.72-3.85-10.44-5.89-2.72-2.05-6.79-5.97-9.06-8.72-2.26-2.75-5.15-7.7-6.41-11-1.37-3.58-2.51-9.23-2.82-14-0.29-4.41-0.02-10.36 0.6-13.25 0.62-2.89 2.37-7.83 3.88-10.98 1.51-3.16 5-8.04 7.75-10.85 2.75-2.82 7.48-6.39 10.5-7.93 3.03-1.55 7.3-3.42 9.5-4.15 2.65-0.88 7.72-1.22 15-1.01zm302 0.05c6.57 0.25 8.97 0.82 13.4 3.21 2.96 1.6 6.92 4.71 8.78 6.91 1.87 2.2 4.39 6.47 5.61 9.5 2.12 5.26 2.21 6.82 2.21 67.5h-22l-0.5-29c-0.33-19.39-0.88-29.67-1.66-31-0.64-1.1-2.44-3.19-4-4.64-1.56-1.45-3.96-2.98-5.34-3.39-1.37-0.41-4.41-0.68-6.75-0.61-2.34 0.08-6.05 1.04-8.25 2.14-2.26 1.12-5.2 3.82-9.5 10.35l-0.29 56.15-22.21 0.5v-85h22v8l4.75-3.37c2.61-1.86 5.88-3.96 7.25-4.68 1.38-0.71 3.85-1.66 5.5-2.09 1.65-0.43 6.6-0.65 11-0.48zm-111 19.19c-2.2 0.86-5.24 2.43-6.75 3.49-1.51 1.07-3.86 3.85-5.23 6.19-1.36 2.33-2.48 4.81-2.5 5.5-0.01 0.96 4.94 1.25 21.48 1.25h21.5c-0.87-4.27-2.22-7.19-3.56-9.25-1.35-2.09-4.33-4.7-6.69-5.87-2.34-1.17-6.5-2.29-9.25-2.49-3-0.22-6.6 0.25-9 1.18zm-201 1.43c-1.65 0.51-4.75 2.41-6.89 4.22-2.15 1.8-5.02 5.53-6.4 8.28-1.88 3.77-2.5 6.6-2.52 11.5-0.02 4.88 0.58 7.72 2.39 11.42 1.33 2.7 3.77 6.25 5.42 7.87 1.65 1.62 4.8 3.79 7 4.81 2.22 1.02 6.23 1.85 9 1.85 2.75 0 6.8-0.81 9-1.81 2.2-1 6.03-4.05 8.5-6.78 3.65-4.02 4.77-6.18 5.9-11.41 1.1-5.07 1.15-7.53 0.27-11.45-0.62-2.75-2.38-6.91-3.9-9.23-1.52-2.32-4.57-5.44-6.77-6.93-3.24-2.19-5.33-2.76-11-3-3.85-0.15-8.35 0.14-10 0.66zm100 0.06c-1.65 0.48-4.77 2.35-6.93 4.16-2.16 1.8-4.97 5.53-6.24 8.28-1.68 3.65-2.31 6.82-2.32 11.75 0 3.71 0.59 8.21 1.31 10 0.72 1.78 3.09 5.23 5.25 7.65 2.16 2.43 5.73 5.23 7.93 6.23 2.36 1.07 6.36 1.83 9.75 1.84 3.16 0.02 7.21-0.56 9-1.28 1.79-0.72 4.83-2.48 6.75-3.9 1.93-1.43 4.81-5.01 6.41-7.95 1.98-3.63 3.07-7.27 3.38-11.34 0.37-4.82 0-7.07-1.91-11.4-1.34-3.03-4.13-6.96-6.38-8.94-2.2-1.94-5.46-4.12-7.25-4.85-1.79-0.72-6.06-1.27-9.5-1.22-3.44 0.05-7.6 0.48-9.25 0.97zm134.25 75.97c1.79-0.02 4.6 0.64 6.25 1.47 1.65 0.82 3.9 2.96 5 4.75 1.1 1.78 2 4.48 2 6 0 1.51-0.67 4.21-1.48 6-0.82 1.78-2.84 4.03-4.5 5-1.68 0.97-5.12 1.76-7.77 1.78-3.46 0.03-5.54-0.58-7.67-2.25-1.61-1.26-3.47-3.63-4.14-5.28-0.66-1.65-0.99-4.58-0.73-6.5 0.26-1.93 1.17-4.55 2.04-5.83 0.86-1.29 2.96-2.96 4.66-3.72 1.7-0.75 4.55-1.39 6.34-1.42zm-402.75 19.79c-4.12 3.14-17.85 13.3-30.5 22.59-12.65 9.28-26.95 19.84-31.77 23.48-4.83 3.63-8.61 7.06-8.4 7.61 0.21 0.55 9.56 7.63 20.77 15.73 11.22 8.1 20.85 14.75 21.4 14.78 0.55 0.02 12.03-8.81 25.5-19.63 13.48-10.82 29.79-23.88 36.25-29.03 6.46-5.14 11.77-9.69 11.79-10.1 0.02-0.42-7.07-6.83-15.75-14.25-8.68-7.43-16.57-14.29-17.53-15.25-0.97-0.97-2.32-1.73-3.01-1.7-0.69 0.03-4.62 2.63-8.75 5.77zm529.5 10.24c2.75-0.04 7.7 0.62 11 1.47 3.3 0.85 8.41 2.99 11.36 4.76 2.95 1.76 7.22 5.27 9.5 7.79 2.28 2.53 5.13 6.58 6.34 9 1.21 2.43 2.91 7.12 3.78 10.42 0.91 3.47 1.45 8.94 1.02 20l-65.5 0.5 0.62 2.25c0.33 1.23 1.42 3.6 2.42 5.25 1 1.65 2.86 3.98 4.14 5.18 1.28 1.21 4.35 3.11 6.82 4.23 2.93 1.33 6.6 2.04 10.5 2.04 3.72 0 7.53-0.7 10-1.84 2.2-1.01 5.91-3.82 12.47-10.61l3.77 1.71c2.07 0.94 5.67 2.18 8.01 2.75 2.34 0.57 4.27 1.37 4.28 1.79 0.02 0.41-1.07 2.77-2.42 5.25-1.35 2.47-4.73 6.63-7.53 9.25-2.79 2.61-7.44 5.87-10.33 7.24-2.89 1.38-8.17 3.02-11.75 3.65-4.88 0.87-8.24 0.87-13.5 0.01-3.85-0.63-9.92-2.54-13.5-4.25-3.74-1.79-8.97-5.51-12.33-8.76-3.64-3.53-6.88-7.89-8.64-11.64-1.55-3.3-3.32-8.37-3.92-11.25-0.61-2.89-1.1-7.39-1.09-10 0-2.62 0.71-7.68 1.56-11.25 0.85-3.58 3.06-8.98 4.92-12 1.86-3.03 5.54-7.59 8.19-10.13 2.65-2.54 6.84-5.78 9.31-7.2 2.48-1.42 6.98-3.25 10-4.06 3.03-0.82 7.75-1.51 10.5-1.55zm-55.25 0.96c3.16-0.01 5.79 0.31 5.83 0.73 0.04 0.41 0.29 3.9 0.55 7.75 0.25 3.85 0.22 8.46-0.63 13.5l-5.75-0.63c-4.66-0.52-6.5-0.25-9.75 1.4-2.2 1.13-5.21 3.32-6.69 4.88-1.49 1.57-3.4 4.53-4.25 6.6-1.27 3.04-1.56 8.42-1.56 53.75l-2.75 0.4c-1.51 0.23-6.27 0.34-10.58 0.25-4.31-0.08-8.18-0.6-8.61-1.15-0.42-0.55-0.69-2.58-0.61-4.5 0.08-1.93 0.24-21.17 0.55-82h22l-0.09 11.5 4.3-4.4c2.36-2.42 6.09-5.23 8.29-6.23 2.37-1.08 6.35-1.84 9.75-1.85zm-230.45 0.93c7.59-0.03 11.01 0.33 11.77 1.25 0.58 0.71 3.67 9.85 6.86 20.3 3.19 10.45 6.91 22.6 8.28 27 1.36 4.4 2.81 8.9 3.23 10 0.58 1.55 1.32 0.2 3.31-6 1.42-4.4 4.69-14.75 7.27-23 2.59-8.25 5.72-18.15 9.21-29l10.89-0.26c5.98-0.14 11.37 0.09 11.97 0.5 0.61 0.42 3.45 8.18 6.33 17.26 2.89 9.07 6.85 21.67 8.81 28 1.96 6.32 3.73 12.17 3.93 13 0.2 0.82 0.58 1.27 0.84 1 0.26-0.28 3.43-10.18 7.03-22 3.61-11.83 7.15-23.53 7.88-26 0.72-2.48 2.05-6.19 4.59-12l11.5 0.25c9.45 0.2 11.5 0.51 11.5 1.75-0.01 0.82-6.12 19.95-13.59 42.5-7.82 23.59-14.29 41.54-15.25 42.28-1.14 0.89-5.29 1.28-25.16 1.22l-1.85-4.25c-1.02-2.34-5.29-14.94-9.5-28-4.21-13.07-7.99-23.58-8.4-23.38-0.41 0.21-1.05 1.45-1.41 2.75-0.37 1.31-4.47 13.4-9.12 26.88-8.08 23.41-8.58 24.53-11.34 25.22-1.58 0.39-7.38 0.62-22.88 0.28l-11.52-34.5c-6.34-18.98-12.71-38.33-14.16-43-1.45-4.68-2.43-8.84-2.18-9.25 0.25-0.42 5.28-0.77 11.16-0.8zm170.2 0.05l0.02 86.5-8.26 0.7c-4.54 0.39-9.38 0.61-13.26 0.3l-0.26-42.5c-0.14-23.38-0.04-43.07 0.23-43.75 0.34-0.89 3.51-1.25 21.53-1.25zm106.5 18.9c-2.2 1.02-5.43 3.37-7.19 5.22-1.75 1.86-3.87 4.73-4.71 6.38-1.17 2.3-1.25 3.17-0.31 3.73 0.67 0.4 10.32 0.74 21.46 0.75 15.24 0.01 20.39-0.29 20.83-1.23 0.32-0.69-0.32-3.05-1.4-5.25-1.09-2.2-3.04-4.99-4.33-6.2-1.29-1.2-4.04-2.89-6.1-3.75-2.06-0.85-6.11-1.54-9-1.53-2.96 0.01-6.99 0.83-9.25 1.88z"/>
</svg>